<svg width="50" height="47" viewBox="0 0 50 47" fill="none" xmlns="http://www.w3.org/2000/svg">
<path d="M49.9999 23.5144C49.9999 36.5098 38.845 47 25.0263 47C11.2076 47 0.0527344 36.5098 0.0527344 23.5144C0.0527344 10.5191 11.2076 0.0288696 25.0263 0.0288696C38.845 0.0288696 49.9999 10.5191 49.9999 23.5144Z" fill="#FFDD67"/>
<path d="M49.8331 8.79683C49.4169 6.68313 48.1682 4.96085 46.0871 4.41285C43.8395 3.86486 41.8416 4.64771 39.9269 6.52656C38.8448 3.70829 37.1799 1.59459 34.516 0.498593C31.8522 -0.5974 29.1883 0.185452 27.5234 2.14258C25.7752 4.178 25.1093 7.38769 26.9407 11.5368C28.6888 15.4511 36.4306 23.2796 36.6804 23.5145C37.0134 23.3579 45.6709 18.2693 47.752 15.7642C49.8331 13.3374 50.2494 10.9105 49.8331 8.79683ZM22.5287 2.14258C20.8638 0.185452 18.1999 -0.5974 15.5361 0.498593C12.8722 1.59459 11.2073 3.70829 10.1251 6.52656C8.12725 4.726 6.12936 3.86486 3.88174 4.49114C1.88386 5.03914 0.551931 6.76141 0.135705 8.87511C-0.280522 10.9105 0.21895 13.4157 2.21684 15.8425C4.38121 18.2693 13.0387 23.3579 13.3717 23.5145C13.6214 23.2796 21.3632 15.4511 23.1114 11.5368C24.9428 7.38769 24.2768 4.25628 22.5287 2.14258Z" fill="#F46767"/>
<path d="M39.1784 28.2899C39.1784 27.6636 38.7622 26.8807 37.68 26.6459C34.7664 26.0979 30.5209 25.6282 25.0267 25.6282C19.5325 25.6282 15.287 26.1762 12.3734 26.6459C11.208 26.8807 10.875 27.6636 10.875 28.2899C10.875 34.0047 15.5367 39.7195 25.0267 39.7195C34.5167 39.6412 39.1784 33.9264 39.1784 28.2899Z" fill="#664E27"/>
<path d="M35.5981 28.4464C33.7667 28.1333 29.9374 27.6636 25.0259 27.6636C20.1145 27.6636 16.2852 28.1333 14.4538 28.4464C13.3716 28.603 13.2884 28.9944 13.3716 29.6207C13.4548 29.9338 13.4548 30.4036 13.6213 30.8733C13.7046 31.343 13.8711 31.5778 14.7035 31.4996C16.2852 31.343 33.8499 31.343 35.4316 31.4996C36.264 31.5778 36.3473 31.343 36.5138 30.8733C36.597 30.4036 36.6803 30.0121 36.7635 29.6207C36.7635 28.9944 36.6803 28.603 35.5981 28.4464Z" fill="white"/>
</svg>
