<svg width="147" height="155" viewBox="0 0 147 155" fill="none" xmlns="http://www.w3.org/2000/svg">
<path d="M0 72.213C0 112.188 32.8125 144.426 73.5 144.426C114.188 144.426 147 112.188 147 72.213C147 32.2379 114.188 0 73.5 0C32.8125 0 0 32.2379 0 72.213Z" fill="#FFDD67"/>
<path d="M26.7744 25.7905C35.6994 20.6324 46.4619 19.8587 56.4369 23.2115C57.7494 23.7273 59.8494 18.8271 58.2744 18.3113C46.9869 14.1848 34.6494 15.2165 24.1494 21.1482C22.5744 21.9219 25.4619 26.5642 26.7744 25.7905ZM89.7744 33.5276C98.6994 28.3695 109.462 27.5958 119.437 30.9486C120.749 31.4644 122.849 26.5642 121.274 26.0484C109.987 21.9219 97.6494 22.9536 87.1494 28.8853C85.5744 29.659 88.4619 34.0434 89.7744 33.5276Z" fill="#917524"/>
<path d="M52.7633 84.3343C66.1508 80.9816 80.8508 83.3027 92.1383 91.0398C95.0258 92.8451 89.7758 100.066 86.8883 98.0032C79.2758 93.103 67.4633 89.4924 55.1258 92.5872C51.9758 93.361 49.3508 85.3659 52.7633 84.3343Z" fill="#664E27"/>
<path d="M101.85 69.8919C91.0871 69.8919 82.1621 61.1232 82.1621 50.5492C82.1621 46.1648 83.7371 42.0384 86.0996 38.9435C90.5621 37.654 95.5496 37.1382 100.8 37.1382C107.1 37.1382 113.137 38.1698 118.387 39.9751C120.487 43.07 121.8 46.6806 121.8 50.8071C121.537 61.3811 112.875 69.8919 101.85 69.8919Z" fill="white"/>
<path d="M104.475 37.1382C105.525 38.6856 106.312 40.4909 106.312 42.5542C106.312 47.9701 101.85 52.3545 96.3375 52.3545C90.825 52.3545 86.625 47.9701 86.625 42.8121C86.625 41.2646 86.8875 39.9751 87.675 38.6856C91.6125 37.654 96.075 37.1382 100.8 37.1382H104.475Z" fill="#664E27"/>
<path d="M45.1504 69.8919C34.3879 69.8919 25.4629 61.1232 25.4629 50.5492C25.4629 46.1648 27.0379 42.0384 29.4004 38.9435C33.8629 37.654 38.8504 37.1382 44.1004 37.1382C50.4004 37.1382 56.4379 38.1698 61.6879 39.9751C63.7879 43.07 65.1004 46.6806 65.1004 50.8071C64.8379 61.3811 55.9129 69.8919 45.1504 69.8919Z" fill="white"/>
<path d="M47.7746 37.1382C48.8246 38.6856 49.6121 40.491 49.6121 42.5542C49.6121 47.9702 45.1496 52.3545 39.6371 52.3545C34.1246 52.3545 29.6621 47.9702 29.6621 42.5542C29.6621 41.0068 29.9246 39.7172 30.7121 38.4277C34.6496 37.3961 39.1121 36.8803 43.8371 36.8803C45.4121 37.1382 46.4621 37.1382 47.7746 37.1382Z" fill="#664E27"/>
<path d="M75.0768 108.319C64.0518 110.898 35.9643 114.251 30.9768 109.093C28.6143 106.772 29.1393 103.419 29.9268 97.4875C30.7143 91.5557 24.9393 85.366 20.7393 84.8502C15.7518 84.3344 12.8643 87.945 14.7018 93.1031C18.3768 104.709 11.0268 108.319 10.5018 116.83C10.2393 121.73 8.66434 129.983 16.2768 140.557C24.9393 152.421 39.9018 152.679 45.1518 152.421C51.1893 152.163 53.8143 151.905 55.1268 149.326C56.7018 146.231 55.9143 145.458 56.7018 144.426C58.0143 142.105 58.8018 142.363 59.5893 139.526C60.3768 136.689 58.2768 134.883 58.8018 133.594C59.8518 130.499 62.4768 131.015 59.8518 123.794C68.7768 122.504 74.5518 121.215 79.8018 118.12C89.5143 112.962 81.1143 107.03 75.0768 108.319Z" fill="white"/>
<path d="M35.4383 153.968C26.5133 152.421 19.1633 148.036 14.4383 141.589C7.0883 131.531 7.6133 123.536 8.1383 118.12V116.314C8.4008 112.704 9.4508 109.867 10.7633 107.03C12.6008 102.903 14.1758 99.5506 12.0758 93.3609C11.0258 90.2661 11.2883 87.1713 13.3883 85.108C15.2258 83.3027 17.8508 82.2711 21.0008 82.7869H21.2633C26.7758 83.8185 33.0758 91.0398 32.2883 98.0032C31.5008 103.677 31.2383 106.256 32.8133 107.804C33.0758 108.061 33.8633 108.835 36.7508 109.093C46.7258 110.898 66.4133 108.061 74.5508 106.256C75.8633 105.998 77.4383 105.998 79.0133 106.256C82.9508 107.03 85.8383 109.351 86.6258 112.188C86.8883 113.993 86.8883 117.346 81.3758 120.441C76.1258 123.278 70.6133 124.825 63.0008 125.857C65.1008 131.015 60.1133 132.82 61.1633 134.883C62.4758 137.72 62.2133 140.041 59.3258 142.878C57.2258 144.684 59.8508 147.005 57.7508 150.616C55.3883 154.484 51.4508 154.742 45.6758 155C41.7383 154.742 38.5883 154.742 35.4383 153.968ZM15.4883 90.7819C17.3258 99.2927 17.8508 102.388 14.7008 109.351C9.9758 118.635 8.1383 144.942 36.2258 149.842C53.2883 152.937 55.9133 148.81 55.1258 144.426C54.6008 141.589 56.9633 140.557 57.7508 139.526C59.5883 136.431 56.9633 134.883 56.9633 133.594C56.9633 131.273 59.3258 131.273 59.8508 128.952C60.6383 124.825 55.3883 123.278 59.8508 123.02C68.5133 122.504 74.2883 120.957 79.2758 117.604C84.0008 114.509 80.5883 108.061 74.2883 109.351C59.5883 112.446 37.5383 116.056 30.1883 109.351C26.7758 106.256 29.4008 102.645 29.1383 95.6821C28.6133 86.3975 13.6508 82.7869 15.4883 90.7819Z" fill="#CCCFD4"/>
</svg>
